
<svg xmlns="http://www.w3.org/2000/svg" version="1.1" xmlns:xlink="http://www.w3.org/1999/xlink" preserveAspectRatio="none" x="0px" y="0px" width="500px" height="500px" viewBox="0 0 500 500">
<defs>
<g id="Layer2_0_FILL">
<path fill="#FFCC33" stroke="none" d="
M 293.95 430.55
L 388.7 430.55 388.7 95.85 293.95 95.85 293.95 430.55
M 192.4 103
L 97.65 103 97.65 430.55 192.4 430.55 192.4 103
M 291.2 69.85
L 196.45 69.85 196.45 430.55 291.2 430.55 291.2 69.85 Z"/>
</g>

<g id="Layer1_0_FILL">
<path fill="#FF6594" stroke="none" d="
M 264.6 430.55
L 359.35 430.55 359.35 105.05 264.6 105.05 264.6 430.55
M 243.8 144
L 149.05 144 149.05 430.55 243.8 430.55 243.8 144 Z"/>
</g>

<g id="Layer0_0_FILL">
<path fill="#FF9999" stroke="none" d="
M 185.1 227.45
L 106.3 227.45 106.3 430.55 185.1 430.55 185.1 227.45
M 129.65 240.5
L 144.75 240.5 144.75 255.6 129.65 255.6 129.65 240.5
M 146.15 240.5
L 161.25 240.5 161.25 255.6 146.15 255.6 146.15 240.5
M 112.7 274.8
L 112.7 259.7 127.8 259.7 127.8 274.8 112.7 274.8
M 112.7 294.05
L 112.7 278.95 127.8 278.95 127.8 294.05 112.7 294.05
M 146.15 259.7
L 161.25 259.7 161.25 274.8 146.15 274.8 146.15 259.7
M 129.65 294.05
L 129.65 278.95 144.75 278.95 144.75 294.05 129.65 294.05
M 161.25 278.95
L 161.25 294.05 146.15 294.05 146.15 278.95 161.25 278.95
M 129.65 274.8
L 129.65 259.7 144.75 259.7 144.75 274.8 129.65 274.8
M 127.8 240.5
L 127.8 255.6 112.7 255.6 112.7 240.5 127.8 240.5
M 161.25 298.2
L 161.25 313.3 146.15 313.3 146.15 298.2 161.25 298.2
M 144.75 298.2
L 144.75 313.3 129.65 313.3 129.65 298.2 144.75 298.2
M 127.8 298.2
L 127.8 313.3 112.7 313.3 112.7 298.2 127.8 298.2
M 163.15 240.5
L 178.25 240.5 178.25 255.6 163.15 255.6 163.15 240.5
M 163.15 259.7
L 178.25 259.7 178.25 274.8 163.15 274.8 163.15 259.7
M 163.15 294.05
L 163.15 278.95 178.25 278.95 178.25 294.05 163.15 294.05
M 178.25 298.2
L 178.25 313.3 163.15 313.3 163.15 298.2 178.25 298.2
M 106.3 210
L 106.3 223.2 185 223.2 185 210 106.3 210
M 283.2 119.85
L 204.45 119.85 204.45 430.55 283.2 430.55 283.2 119.85
M 212.15 135.75
L 227.25 135.75 227.25 150.85 212.15 150.85 212.15 135.75
M 229.1 172.3
L 229.1 157.2 244.2 157.2 244.2 172.3 229.1 172.3
M 227.25 157.2
L 227.25 172.3 212.15 172.3 212.15 157.2 227.25 157.2
M 212.15 193.7
L 212.15 178.6 227.25 178.6 227.25 193.7 212.15 193.7
M 229.1 193.7
L 229.1 178.6 244.2 178.6 244.2 193.7 229.1 193.7
M 229.1 150.85
L 229.1 135.75 244.2 135.75 244.2 150.85 229.1 150.85
M 262.6 135.75
L 277.7 135.75 277.7 150.85 262.6 150.85 262.6 135.75
M 245.6 135.75
L 260.7 135.75 260.7 150.85 245.6 150.85 245.6 135.75
M 277.7 157.2
L 277.7 172.3 262.6 172.3 262.6 157.2 277.7 157.2
M 260.7 157.2
L 260.7 172.3 245.6 172.3 245.6 157.2 260.7 157.2
M 245.6 178.6
L 260.7 178.6 260.7 193.7 245.6 193.7 245.6 178.6
M 262.6 193.7
L 262.6 178.6 277.7 178.6 277.7 193.7 262.6 193.7
M 277.7 198.4
L 277.7 213.5 262.6 213.5 262.6 198.4 277.7 198.4
M 245.6 198.4
L 260.7 198.4 260.7 213.5 245.6 213.5 245.6 198.4
M 245.6 219.3
L 260.7 219.3 260.7 234.4 245.6 234.4 245.6 219.3
M 244.2 198.4
L 244.2 213.5 229.1 213.5 229.1 198.4 244.2 198.4
M 277.7 234.4
L 262.6 234.4 262.6 219.3 277.7 219.3 277.7 234.4
M 244.2 219.3
L 244.2 234.4 229.1 234.4 229.1 219.3 244.2 219.3
M 227.25 198.4
L 227.25 213.5 212.15 213.5 212.15 198.4 227.25 198.4
M 227.25 219.3
L 227.25 234.4 212.15 234.4 212.15 219.3 227.25 219.3
M 311.75 119.85
L 300.95 119.85 300.95 430.55 379.75 430.55 379.75 167.05 311.75 119.85
M 355.4 193.7
L 340.3 193.7 340.3 178.6 355.4 178.6 355.4 193.7
M 357.35 193.7
L 357.35 178.6 372.45 178.6 372.45 193.7 357.35 193.7
M 338.95 178.6
L 338.95 193.7 323.85 193.7 323.85 178.6 338.95 178.6
M 372.45 198.95
L 372.45 214.05 357.35 214.05 357.35 198.95 372.45 198.95
M 372.45 220.9
L 372.45 236 357.35 236 357.35 220.9 372.45 220.9
M 355.4 198.95
L 355.4 214.05 340.3 214.05 340.3 198.95 355.4 198.95
M 338.95 198.95
L 338.95 214.05 323.85 214.05 323.85 198.95 338.95 198.95
M 355.4 220.9
L 355.4 236 340.3 236 340.3 220.9 355.4 220.9
M 340.3 241.2
L 355.4 241.2 355.4 256.3 340.3 256.3 340.3 241.2
M 338.95 220.9
L 338.95 236 323.85 236 323.85 220.9 338.95 220.9
M 372.45 241.2
L 372.45 256.3 357.35 256.3 357.35 241.2 372.45 241.2
M 338.95 241.2
L 338.95 256.3 323.85 256.3 323.85 241.2 338.95 241.2
M 322 178.6
L 322 193.7 306.9 193.7 306.9 178.6 322 178.6
M 306.9 198.95
L 322 198.95 322 214.05 306.9 214.05 306.9 198.95
M 306.9 220.9
L 322 220.9 322 236 306.9 236 306.9 220.9
M 306.9 241.2
L 322 241.2 322 256.3 306.9 256.3 306.9 241.2
M 204.5 102.35
L 204.5 115.55 283.2 115.55 283.2 102.35 204.5 102.35 Z"/>

<path fill="#FFFFCC" stroke="none" d="
M 178.25 313.3
L 178.25 298.2 163.15 298.2 163.15 313.3 178.25 313.3
M 163.15 278.95
L 163.15 294.05 178.25 294.05 178.25 278.95 163.15 278.95
M 178.25 259.7
L 163.15 259.7 163.15 274.8 178.25 274.8 178.25 259.7
M 178.25 240.5
L 163.15 240.5 163.15 255.6 178.25 255.6 178.25 240.5
M 127.8 313.3
L 127.8 298.2 112.7 298.2 112.7 313.3 127.8 313.3
M 144.75 313.3
L 144.75 298.2 129.65 298.2 129.65 313.3 144.75 313.3
M 161.25 313.3
L 161.25 298.2 146.15 298.2 146.15 313.3 161.25 313.3
M 127.8 255.6
L 127.8 240.5 112.7 240.5 112.7 255.6 127.8 255.6
M 129.65 259.7
L 129.65 274.8 144.75 274.8 144.75 259.7 129.65 259.7
M 161.25 294.05
L 161.25 278.95 146.15 278.95 146.15 294.05 161.25 294.05
M 129.65 278.95
L 129.65 294.05 144.75 294.05 144.75 278.95 129.65 278.95
M 161.25 259.7
L 146.15 259.7 146.15 274.8 161.25 274.8 161.25 259.7
M 112.7 278.95
L 112.7 294.05 127.8 294.05 127.8 278.95 112.7 278.95
M 112.7 259.7
L 112.7 274.8 127.8 274.8 127.8 259.7 112.7 259.7
M 161.25 240.5
L 146.15 240.5 146.15 255.6 161.25 255.6 161.25 240.5
M 144.75 240.5
L 129.65 240.5 129.65 255.6 144.75 255.6 144.75 240.5
M 227.25 234.4
L 227.25 219.3 212.15 219.3 212.15 234.4 227.25 234.4
M 227.25 213.5
L 227.25 198.4 212.15 198.4 212.15 213.5 227.25 213.5
M 244.2 234.4
L 244.2 219.3 229.1 219.3 229.1 234.4 244.2 234.4
M 262.6 234.4
L 277.7 234.4 277.7 219.3 262.6 219.3 262.6 234.4
M 244.2 213.5
L 244.2 198.4 229.1 198.4 229.1 213.5 244.2 213.5
M 260.7 219.3
L 245.6 219.3 245.6 234.4 260.7 234.4 260.7 219.3
M 260.7 198.4
L 245.6 198.4 245.6 213.5 260.7 213.5 260.7 198.4
M 277.7 213.5
L 277.7 198.4 262.6 198.4 262.6 213.5 277.7 213.5
M 262.6 178.6
L 262.6 193.7 277.7 193.7 277.7 178.6 262.6 178.6
M 260.7 178.6
L 245.6 178.6 245.6 193.7 260.7 193.7 260.7 178.6
M 260.7 172.3
L 260.7 157.2 245.6 157.2 245.6 172.3 260.7 172.3
M 277.7 172.3
L 277.7 157.2 262.6 157.2 262.6 172.3 277.7 172.3
M 260.7 135.75
L 245.6 135.75 245.6 150.85 260.7 150.85 260.7 135.75
M 277.7 135.75
L 262.6 135.75 262.6 150.85 277.7 150.85 277.7 135.75
M 229.1 135.75
L 229.1 150.85 244.2 150.85 244.2 135.75 229.1 135.75
M 229.1 178.6
L 229.1 193.7 244.2 193.7 244.2 178.6 229.1 178.6
M 212.15 178.6
L 212.15 193.7 227.25 193.7 227.25 178.6 212.15 178.6
M 227.25 172.3
L 227.25 157.2 212.15 157.2 212.15 172.3 227.25 172.3
M 229.1 157.2
L 229.1 172.3 244.2 172.3 244.2 157.2 229.1 157.2
M 227.25 135.75
L 212.15 135.75 212.15 150.85 227.25 150.85 227.25 135.75
M 322 241.2
L 306.9 241.2 306.9 256.3 322 256.3 322 241.2
M 322 220.9
L 306.9 220.9 306.9 236 322 236 322 220.9
M 322 198.95
L 306.9 198.95 306.9 214.05 322 214.05 322 198.95
M 322 193.7
L 322 178.6 306.9 178.6 306.9 193.7 322 193.7
M 338.95 256.3
L 338.95 241.2 323.85 241.2 323.85 256.3 338.95 256.3
M 372.45 256.3
L 372.45 241.2 357.35 241.2 357.35 256.3 372.45 256.3
M 338.95 236
L 338.95 220.9 323.85 220.9 323.85 236 338.95 236
M 355.4 241.2
L 340.3 241.2 340.3 256.3 355.4 256.3 355.4 241.2
M 355.4 236
L 355.4 220.9 340.3 220.9 340.3 236 355.4 236
M 338.95 214.05
L 338.95 198.95 323.85 198.95 323.85 214.05 338.95 214.05
M 355.4 214.05
L 355.4 198.95 340.3 198.95 340.3 214.05 355.4 214.05
M 372.45 236
L 372.45 220.9 357.35 220.9 357.35 236 372.45 236
M 372.45 214.05
L 372.45 198.95 357.35 198.95 357.35 214.05 372.45 214.05
M 338.95 193.7
L 338.95 178.6 323.85 178.6 323.85 193.7 338.95 193.7
M 357.35 178.6
L 357.35 193.7 372.45 193.7 372.45 178.6 357.35 178.6
M 340.3 193.7
L 355.4 193.7 355.4 178.6 340.3 178.6 340.3 193.7 Z"/>
</g>
</defs>

<g transform="matrix( 1, 0, 0, 1, 0,0) ">
<use xlink:href="#Layer2_0_FILL"/>
</g>

<g transform="matrix( 1, 0, 0, 1, 0,0) ">
<use xlink:href="#Layer1_0_FILL"/>
</g>

<g transform="matrix( 1, 0, 0, 1, 0,0) ">
<use xlink:href="#Layer0_0_FILL"/>
</g>
</svg>
