
<svg xmlns="http://www.w3.org/2000/svg" version="1.1" xmlns:xlink="http://www.w3.org/1999/xlink" preserveAspectRatio="none" x="0px" y="0px" width="500px" height="500px" viewBox="0 0 500 500">
<defs>
<g id="Layer0_0_FILL">
<path fill="#006699" stroke="none" d="
M 201.2 105
L 201.2 126 298 126 298 105 201.2 105 Z"/>

<path fill="#003366" stroke="none" d="
M 360.55 137.4
L 360.55 126 298 126 201.2 126 139.5 126 139.5 140.9 151.1 140.9 151.1 149.5 159.75 149.5 159.75 166.4 150.75 166.4 150.75 202.15 150.75 203.8
Q 199.95 179.75 249.15 171.45 281.1638671875 176.8103515625 311.4 187.05 315.6875 188.6375 319.95 190.2 334.3123046875 195.65546875 348.35 201.95 348.775 202.1375 349.15 202.3 350.38828125 202.877734375 351.6 203.45
L 351.6 203.4 351.6 168.85 340.7 168.85 340.7 148.1 349.3 148.1 349.3 137.4 360.55 137.4
M 213.85 167.6
L 182.75 167.6 182.75 148.1 213.85 148.1 213.85 167.6
M 235.45 167.6
L 235.45 148.1 266.55 148.1 266.55 167.6 235.45 167.6
M 288.85 148.1
L 319.95 148.1 319.95 167.6 288.85 167.6 288.85 148.1 Z"/>

<path fill="#000033" stroke="none" d="
M 349.15 202.3
Q 348.775 202.1375 348.35 201.95 334.3123046875 195.65546875 319.95 190.2 315.6875 188.6375 311.4 187.05 281.1638671875 176.8103515625 249.15 171.45 199.95 179.75 150.75 203.8
L 150.75 202.15
Q 121.89140625 215.1728515625 94.15 231.75 161.95 341.4 170.9 394.1 204.85 409.75 239.8 411.85
L 251.2 325.05 263 411.7
Q 296.7 409.2 331.7 394.1 342.6 343.7 405.85 231.75 379.255078125 215.9728515625 351.6 203.4
L 351.6 203.45
Q 350.38828125 202.877734375 349.15 202.3
M 326.4 242.15
Q 329.95 238.8 334.85 238.8 339.75 238.8 343.3 242.15 346.8 245.65 346.8 250.55 346.8 255.5 343.3 259 339.75 262.5 334.85 262.5 329.95 262.5 326.4 259 322.9 255.5 322.9 250.55 322.9 245.65 326.4 242.15
M 356.65 266.05
Q 354 263.4 354 259.7 354 256 356.65 253.4 359.25 250.75 362.95 250.75 366.65 250.75 369.1 253.4 371.75 256 371.75 259.7 371.75 263.4 369.1 266.05 366.65 268.5 362.95 268.5 359.25 268.5 356.65 266.05
M 307.6 222.3
Q 313.95 222.3 318.5 226.65 322.9 231.25 322.9 237.55 322.9 244.05 318.5 248.45 313.95 253 307.6 253 301.3 253 296.7 248.45 292.35 244.05 292.35 237.55 292.35 231.25 296.7 226.65 301.3 222.3 307.6 222.3 Z"/>

<path fill="#0000CC" stroke="none" d="
M 175.95 412.4
Q 252.4 453.15 327.4 412.4 251.7 438.9 175.95 412.4
M 442.85 412.4
Q 385.9 432.4 327.4 412.4 385.75 438.55 442.85 412.4
M 57.2 412.4
Q 116.55 444.2 175.95 412.4 120.1 431.35 57.2 412.4 Z"/>
</g>
</defs>

<g transform="matrix( 1, 0, 0, 1, 0,0) ">
<use xlink:href="#Layer0_0_FILL"/>
</g>
</svg>
